<svg xmlns="http://www.w3.org/2000/svg" width="632" height="65" viewBox="0 0 632 65">
  <defs>
    <style>
      .cls-1 {
        fill-rule: evenodd;
      }
    </style>
  </defs>
  <path id="TEMPERA" class="cls-1" d="M51.538-.2H0.391V9.706H19.935V64.619H31.994V9.706H51.538V-0.2ZM136.8,9.392V-0.2H95.916v64.82H136.8V54.982H108.02V36.647H130.7V27.368H108.02V9.392H136.8ZM244.518-.2q-0.807,0-1.39.045a3.787,3.787,0,0,0-1.053.224,2.493,2.493,0,0,0-.874.583,4.522,4.522,0,0,0-.762,1.076L221.3,37.633q-0.764,1.435-1.435,2.981t-1.3,3.205q-0.628-1.614-1.278-3.138t-1.412-2.959l-19.41-36a5.012,5.012,0,0,0-.739-1.076,2.3,2.3,0,0,0-.852-0.583,3.787,3.787,0,0,0-1.053-.224Q193.236-.2,192.429-0.2h-9.1v64.82h10.624V22.751q0-1.21-.09-2.645t-0.224-2.914L213.453,54.13a4.526,4.526,0,0,0,4.258,2.645h1.7a4.527,4.527,0,0,0,4.258-2.645l19.59-36.8q-0.27,2.914-.269,5.424V64.619h10.624V-0.2h-9.1Zm71.454,32.589V9.123h9.01a19.309,19.309,0,0,1,5.827.784,10.773,10.773,0,0,1,4.08,2.264,9.3,9.3,0,0,1,2.42,3.586,13.073,13.073,0,0,1,.807,4.707,14.41,14.41,0,0,1-.807,4.953,9.618,9.618,0,0,1-2.443,3.765,10.956,10.956,0,0,1-4.1,2.376,18.16,18.16,0,0,1-5.783.829h-9.01ZM303.913-.2v64.82h12.059V41.8h9.01a35.133,35.133,0,0,0,11.05-1.569A21.887,21.887,0,0,0,343.9,35.84a17.925,17.925,0,0,0,4.707-6.747,23.052,23.052,0,0,0,1.569-8.629,22.55,22.55,0,0,0-1.5-8.338,16.9,16.9,0,0,0-4.6-6.545,21.666,21.666,0,0,0-7.845-4.259A37.006,37.006,0,0,0,324.982-.2H303.913ZM436.152,9.392V-0.2H395.27v64.82h40.882V54.982H407.373V36.647h22.683V27.368H407.373V9.392h28.779ZM494.741,30.64V9.123h7.71q6.679,0,9.929,2.645a9.206,9.206,0,0,1,3.25,7.576,12.317,12.317,0,0,1-.807,4.528,9.446,9.446,0,0,1-2.443,3.564,11.474,11.474,0,0,1-4.169,2.353,18.653,18.653,0,0,1-5.939.852h-7.531Zm22.324,10.041a11.349,11.349,0,0,0-1.793-2.174,11.828,11.828,0,0,0-2.152-1.591,22.468,22.468,0,0,0,6.074-2.824,18.73,18.73,0,0,0,4.483-4.169,17.912,17.912,0,0,0,2.779-5.29,19.586,19.586,0,0,0,.964-6.186,19.391,19.391,0,0,0-1.435-7.553A14.993,14.993,0,0,0,521.525,5a21.673,21.673,0,0,0-7.755-3.833A41.11,41.11,0,0,0,502.451-.2H482.682v64.82h12.059V39.292H499.9a5.894,5.894,0,0,1,2.712.493,4.8,4.8,0,0,1,1.681,1.659L517.916,62.2a4.778,4.778,0,0,0,4.483,2.421h10.893Zm72.753-.538,7.845-21.472q0.582-1.479,1.21-3.474t1.211-4.281q0.627,2.286,1.255,4.259t1.21,3.407l7.89,21.562H589.818ZM606.27-.2H593.987L568.48,64.619h9.414a3.878,3.878,0,0,0,2.555-.852,4.3,4.3,0,0,0,1.39-1.883l4.841-13.224h26.852l4.841,13.224a4.884,4.884,0,0,0,1.479,1.95,3.977,3.977,0,0,0,2.555.785h9.324Z"/>
</svg>
